<svg xmlns="http://www.w3.org/2000/svg" width="1800" height="1040" viewBox="0 0 1800 1040">
  <defs>
    <style>
      .board-bg { fill: #f5f1ea; }
      .title { font: 700 30px 'Aptos', 'Segoe UI', sans-serif; fill: #222222; }
      .subtitle { font: 400 14px 'Aptos', 'Segoe UI', sans-serif; fill: #5f5b57; }
      .screen-title { font: 700 18px 'Aptos', 'Segoe UI', sans-serif; fill: #2a2a2a; }
      .label { font: 600 12px 'Aptos', 'Segoe UI', sans-serif; fill: #4e4a46; letter-spacing: 0.6px; }
      .body { font: 500 13px 'Aptos', 'Segoe UI', sans-serif; fill: #333333; }
      .body-sm { font: 500 11px 'Aptos', 'Segoe UI', sans-serif; fill: #555555; }
      .body-xs { font: 500 10px 'Aptos', 'Segoe UI', sans-serif; fill: #666666; }
      .muted { fill: #7d7771; }
      .phone { fill: #2f2f2f; }
      .screen { fill: #fcfbf8; }
      .card { fill: #ffffff; stroke: #d8d2cb; stroke-width: 1.2; }
      .soft { fill: #f0ece6; stroke: #d8d2cb; stroke-width: 1; }
      .line { stroke: #d8d2cb; stroke-width: 1; }
      .line-strong { stroke: #bdb6ae; stroke-width: 1.5; }
      .dashed { stroke: #c8bcae; stroke-width: 1.5; stroke-dasharray: 5 4; fill: none; }
      .selected { stroke: #dd7a3d; stroke-width: 3; fill: none; }
      .today { stroke: #8e8780; stroke-width: 1.5; fill: none; }
      .banner { fill: #dff2df; }
      .chip { fill: #ffffff; stroke: #cfc8c0; stroke-width: 1; }
      .chip-selected-red { fill: #d86a6a; stroke: #d86a6a; }
      .chip-selected-teal { fill: #6fa8a4; stroke: #6fa8a4; }
      .chip-selected-orange { fill: #d7a15c; stroke: #d7a15c; }
      .chip-selected-blue { fill: #6e8fd7; stroke: #6e8fd7; }
      .chip-selected-olive { fill: #9a9055; stroke: #9a9055; }
      .chip-text-dark { font: 600 11px 'Aptos', 'Segoe UI', sans-serif; fill: #444444; }
      .chip-text-light { font: 600 11px 'Aptos', 'Segoe UI', sans-serif; fill: #ffffff; }
      .accent-red { fill: #d86a6a; }
      .accent-teal { fill: #6fa8a4; }
      .accent-orange { fill: #d7a15c; }
      .accent-blue { fill: #6e8fd7; }
      .accent-olive { fill: #9a9055; }
      .accent-green { fill: #7fb67f; }
      .tint-red { fill: #f2d5d5; }
      .tint-teal { fill: #d7ebe8; }
      .tint-orange { fill: #f3e2c8; }
      .tint-blue { fill: #dbe4f8; }
      .tint-olive { fill: #e6e0c5; }
      .tint-green { fill: #d9ebd9; }
      .badge { fill: #ffffff; stroke: #cfc8c0; stroke-width: 1; }
    </style>
  </defs>

  <rect class="board-bg" x="0" y="0" width="1800" height="1040" rx="24"/>

  <text class="title" x="70" y="68">Flexible Cycle Tracker Wireframes</text>
  <text class="subtitle" x="70" y="95">Low-fidelity mobile concepts based on the design doc: calendar-first, custom tags, segmented day fills, and lightweight period prediction.</text>

  <g transform="translate(70 170)">
    <text class="screen-title" x="180" y="-24" text-anchor="middle">1. Month View</text>
    <rect class="phone" x="0" y="0" width="360" height="760" rx="40"/>
    <rect class="screen" x="16" y="16" width="328" height="728" rx="28"/>
    <rect x="138" y="8" width="84" height="10" rx="5" fill="#1f1f1f"/>

    <text class="body-sm" x="36" y="46">07:53</text>
    <text class="body-sm" x="302" y="46" text-anchor="end">87%</text>

    <rect class="banner" x="16" y="62" width="328" height="96" rx="20"/>
    <text class="screen-title" x="180" y="102" text-anchor="middle">Period due in 4 days</text>
    <text class="body-xs" x="180" y="126" text-anchor="middle">Based on recent Bleeding tags</text>

    <circle cx="52" cy="188" r="16" class="soft"/>
    <text class="body" x="52" y="193" text-anchor="middle">&lt;</text>
    <text class="screen-title" x="180" y="194" text-anchor="middle">June 2026</text>
    <circle cx="308" cy="188" r="16" class="soft"/>
    <text class="body" x="308" y="193" text-anchor="middle">&gt;</text>

    <text class="label" x="38" y="226">MON</text>
    <text class="label" x="84" y="226">TUE</text>
    <text class="label" x="130" y="226">WED</text>
    <text class="label" x="177" y="226">THU</text>
    <text class="label" x="223" y="226">FRI</text>
    <text class="label" x="268" y="226">SAT</text>
    <text class="label" x="313" y="226">SUN</text>

    <rect class="card" x="26" y="238" width="308" height="350" rx="18"/>

    <line class="line" x1="70" y1="238" x2="70" y2="588"/>
    <line class="line" x1="114" y1="238" x2="114" y2="588"/>
    <line class="line" x1="158" y1="238" x2="158" y2="588"/>
    <line class="line" x1="202" y1="238" x2="202" y2="588"/>
    <line class="line" x1="246" y1="238" x2="246" y2="588"/>
    <line class="line" x1="290" y1="238" x2="290" y2="588"/>

    <line class="line" x1="26" y1="308" x2="334" y2="308"/>
    <line class="line" x1="26" y1="378" x2="334" y2="378"/>
    <line class="line" x1="26" y1="448" x2="334" y2="448"/>
    <line class="line" x1="26" y1="518" x2="334" y2="518"/>

    <rect class="soft" x="290" y="308" width="44" height="70" rx="8" fill="#f8eee7"/>
    <rect class="selected" x="291.5" y="309.5" width="41" height="67" rx="8"/>
    <rect class="soft" x="26" y="588" width="132" height="0"/>
    <rect class="dashed" x="291" y="518" width="41" height="67" rx="8"/>

    <rect class="tint-red" x="26" y="308" width="44" height="70"/>
    <rect class="tint-red" x="70" y="308" width="22" height="70"/>
    <rect class="tint-teal" x="92" y="308" width="22" height="70"/>
    <rect class="tint-red" x="114" y="308" width="15" height="70"/>
    <rect class="tint-teal" x="129" y="308" width="15" height="70"/>
    <rect class="tint-orange" x="144" y="308" width="14" height="70"/>
    <rect class="tint-orange" x="246" y="308" width="44" height="70"/>
    <rect class="tint-red" x="290" y="308" width="7" height="70"/>
    <rect class="tint-olive" x="297" y="308" width="7" height="70"/>
    <rect class="tint-teal" x="304" y="308" width="7" height="70"/>
    <rect class="tint-blue" x="311" y="308" width="7" height="70"/>
    <rect class="tint-orange" x="318" y="308" width="8" height="70"/>
    <rect class="tint-green" x="326" y="308" width="8" height="70"/>
    <rect class="tint-blue" x="202" y="378" width="22" height="70"/>
    <rect class="tint-olive" x="224" y="378" width="22" height="70"/>
    <rect class="tint-blue" x="246" y="378" width="44" height="70"/>

    <line class="line" x1="70" y1="238" x2="70" y2="588"/>
    <line class="line" x1="114" y1="238" x2="114" y2="588"/>
    <line class="line" x1="158" y1="238" x2="158" y2="588"/>
    <line class="line" x1="202" y1="238" x2="202" y2="588"/>
    <line class="line" x1="246" y1="238" x2="246" y2="588"/>
    <line class="line" x1="290" y1="238" x2="290" y2="588"/>
    <line class="line" x1="26" y1="308" x2="334" y2="308"/>
    <line class="line" x1="26" y1="378" x2="334" y2="378"/>
    <line class="line" x1="26" y1="448" x2="334" y2="448"/>
    <line class="line" x1="26" y1="518" x2="334" y2="518"/>
    <rect class="selected" x="291.5" y="309.5" width="41" height="67" rx="8"/>
    <rect class="dashed" x="291" y="518" width="41" height="67" rx="8"/>

    <text class="body" x="42" y="272">1</text>
    <text class="body" x="86" y="272">2</text>
    <text class="body" x="130" y="272">3</text>
    <text class="body" x="174" y="272">4</text>
    <text class="body" x="218" y="272">5</text>
    <text class="body" x="262" y="272">6</text>
    <text class="body" x="306" y="272">7</text>

    <text class="body" x="42" y="342">8</text>
    <text class="body" x="86" y="342">9</text>
    <text class="body" x="130" y="342">10</text>
    <text class="body" x="174" y="342">11</text>
    <text class="body" x="218" y="342">12</text>
    <text class="body" x="262" y="342">13</text>
    <text class="body" x="306" y="342">14</text>

    <text class="body" x="42" y="412">15</text>
    <text class="body" x="86" y="412">16</text>
    <text class="body" x="130" y="412">17</text>
    <text class="body" x="174" y="412">18</text>
    <text class="body" x="218" y="412">19</text>
    <text class="body" x="262" y="412">20</text>
    <text class="body" x="306" y="412">21</text>

    <text class="body" x="42" y="482">22</text>
    <text class="body" x="86" y="482">23</text>
    <text class="body" x="130" y="482">24</text>
    <text class="body" x="174" y="482">25</text>
    <text class="body" x="218" y="482">26</text>
    <text class="body" x="262" y="482">27</text>
    <text class="body" x="306" y="482">28</text>

    <text class="body" x="42" y="552">29</text>
    <text class="body" x="86" y="552">30</text>
    <text class="body muted" x="130" y="552">1</text>
    <text class="body muted" x="174" y="552">2</text>
    <text class="body muted" x="218" y="552">3</text>
    <text class="body muted" x="262" y="552">4</text>
    <text class="body muted" x="306" y="552">5</text>

    <circle class="badge" cx="320" cy="366" r="10"/>
    <text class="body-xs" x="320" y="369" text-anchor="middle">+1</text>

    <rect class="soft" x="26" y="612" width="308" height="92" rx="18"/>
    <text class="body" x="42" y="642">Day summary</text>
    <text class="body-sm" x="42" y="668">14 June: Bleeding, Dodgy poops, Lightheaded, and 4 more</text>
    <text class="body-sm" x="42" y="690">1 tag = full fill, 2-6 = equal vertical slices, 7+ = slices plus badge</text>

    <text class="body-xs" x="180" y="790" text-anchor="middle">Calendar-first home. Up to 6 tags can live directly in the cell before overflow kicks in.</text>
  </g>

  <g transform="translate(500 170)">
    <text class="screen-title" x="180" y="-24" text-anchor="middle">2. Day Detail Sheet</text>
    <rect class="phone" x="0" y="0" width="360" height="760" rx="40"/>
    <rect class="screen" x="16" y="16" width="328" height="728" rx="28"/>
    <rect x="138" y="8" width="84" height="10" rx="5" fill="#1f1f1f"/>

    <rect class="soft" x="30" y="40" width="300" height="250" rx="18"/>
    <line class="line" x1="52" y1="110" x2="308" y2="110"/>
    <line class="line" x1="52" y1="154" x2="308" y2="154"/>
    <line class="line" x1="52" y1="198" x2="308" y2="198"/>
    <line class="line" x1="52" y1="242" x2="308" y2="242"/>
    <rect x="253" y="172" width="44" height="44" rx="8" fill="#fcfbf8" stroke="#dd7a3d" stroke-width="3"/>

    <rect class="card" x="24" y="292" width="312" height="420" rx="26"/>
    <rect x="144" y="308" width="72" height="6" rx="3" fill="#d7d0c7"/>
    <text class="screen-title" x="180" y="346" text-anchor="middle">Sunday, 14 June</text>
    <text class="body-sm" x="180" y="368" text-anchor="middle">Select all tags that apply to this day</text>

    <text class="label" x="44" y="408">SELECTED</text>
    <rect class="chip-selected-red" x="44" y="420" width="86" height="34" rx="17"/>
    <text class="chip-text-light" x="87" y="442" text-anchor="middle">Bleeding</text>
    <rect class="chip-selected-olive" x="140" y="420" width="102" height="34" rx="17"/>
    <text class="chip-text-light" x="191" y="442" text-anchor="middle">Dodgy poops</text>
    <rect class="chip-selected-teal" x="44" y="464" width="102" height="34" rx="17"/>
    <text class="chip-text-light" x="95" y="486" text-anchor="middle">Lightheaded</text>

    <text class="label" x="44" y="536">AVAILABLE TAGS</text>
    <rect class="chip" x="44" y="548" width="104" height="34" rx="17"/>
    <text class="chip-text-dark" x="96" y="570" text-anchor="middle">Bad hangover</text>
    <rect class="chip-selected-blue" x="156" y="548" width="102" height="34" rx="17"/>
    <text class="chip-text-light" x="207" y="570" text-anchor="middle">No hangover</text>
    <rect class="chip" x="44" y="592" width="86" height="34" rx="17"/>
    <text class="chip-text-dark" x="87" y="614" text-anchor="middle">Cramps</text>
    <rect class="chip" x="140" y="592" width="76" height="34" rx="17"/>
    <text class="chip-text-dark" x="178" y="614" text-anchor="middle">Tired</text>

    <rect class="soft" x="44" y="650" width="214" height="40" rx="20"/>
    <text class="body" x="151" y="675" text-anchor="middle">+ Create new tag</text>
    <text class="body-xs" x="180" y="720" text-anchor="middle">Autosave option shown here for low-friction logging.</text>

    <text class="body-xs" x="180" y="790" text-anchor="middle">Tap once to toggle tags on the day. This screen can be a bottom sheet or full modal.</text>
  </g>

  <g transform="translate(930 170)">
    <text class="screen-title" x="180" y="-24" text-anchor="middle">3. Manage Tags</text>
    <rect class="phone" x="0" y="0" width="360" height="760" rx="40"/>
    <rect class="screen" x="16" y="16" width="328" height="728" rx="28"/>
    <rect x="138" y="8" width="84" height="10" rx="5" fill="#1f1f1f"/>

    <text class="screen-title" x="48" y="62">Tags</text>
    <rect class="soft" x="224" y="38" width="96" height="30" rx="15"/>
    <text class="body-sm" x="272" y="58" text-anchor="middle">Edit order</text>

    <rect class="card" x="28" y="90" width="304" height="98" rx="18"/>
    <rect class="accent-red" x="46" y="114" width="18" height="18" rx="4"/>
    <text class="body" x="78" y="128">Bleeding</text>
    <rect class="banner" x="78" y="140" width="134" height="24" rx="12"/>
    <text class="body-xs" x="145" y="156" text-anchor="middle">Used for period prediction</text>
    <text class="body-sm" x="308" y="128" text-anchor="end">Edit</text>
    <text class="body-xs" x="308" y="154" text-anchor="end">Drag</text>

    <rect class="card" x="28" y="198" width="304" height="64" rx="18"/>
    <rect class="accent-orange" x="46" y="221" width="18" height="18" rx="4"/>
    <text class="body" x="78" y="235">Bad hangover</text>
    <text class="body-sm" x="308" y="235" text-anchor="end">Edit</text>

    <rect class="card" x="28" y="272" width="304" height="64" rx="18"/>
    <rect class="accent-blue" x="46" y="295" width="18" height="18" rx="4"/>
    <text class="body" x="78" y="309">No hangover</text>
    <text class="body-sm" x="308" y="309" text-anchor="end">Edit</text>

    <rect class="card" x="28" y="346" width="304" height="64" rx="18"/>
    <rect class="accent-olive" x="46" y="369" width="18" height="18" rx="4"/>
    <text class="body" x="78" y="383">Dodgy poops</text>
    <text class="body-sm" x="308" y="383" text-anchor="end">Edit</text>

    <rect class="card" x="28" y="420" width="304" height="64" rx="18"/>
    <rect class="accent-teal" x="46" y="443" width="18" height="18" rx="4"/>
    <text class="body" x="78" y="457">Lightheaded</text>
    <text class="body-sm" x="308" y="457" text-anchor="end">Edit</text>

    <rect class="soft" x="28" y="512" width="304" height="58" rx="18"/>
    <text class="body" x="48" y="548">Archived tags</text>
    <text class="body-sm" x="308" y="548" text-anchor="end">2 hidden</text>

    <rect x="114" y="654" width="132" height="46" rx="23" fill="#2d2d2d"/>
    <text class="chip-text-light" x="180" y="683" text-anchor="middle">+ Add tag</text>

    <text class="body-xs" x="180" y="790" text-anchor="middle">Dedicated tag management keeps the main calendar uncluttered.</text>
  </g>

  <g transform="translate(1360 170)">
    <text class="screen-title" x="180" y="-24" text-anchor="middle">4. Create or Edit Tag</text>
    <rect class="phone" x="0" y="0" width="360" height="760" rx="40"/>
    <rect class="screen" x="16" y="16" width="328" height="728" rx="28"/>
    <rect x="138" y="8" width="84" height="10" rx="5" fill="#1f1f1f"/>

    <text class="screen-title" x="48" y="62">New tag</text>
    <text class="body-sm" x="308" y="62" text-anchor="end">Save</text>

    <text class="label" x="38" y="104">NAME</text>
    <rect class="card" x="38" y="116" width="284" height="46" rx="16"/>
    <text class="body" x="54" y="145">Lightheaded</text>

    <text class="label" x="38" y="196">COLOR</text>
    <circle class="accent-red" cx="62" cy="224" r="15"/>
    <circle class="accent-orange" cx="104" cy="224" r="15"/>
    <circle class="accent-olive" cx="146" cy="224" r="15"/>
    <circle class="accent-teal" cx="188" cy="224" r="15"/>
    <circle class="accent-blue" cx="230" cy="224" r="15"/>
    <circle class="accent-green" cx="272" cy="224" r="15"/>
    <circle cx="188" cy="224" r="21" fill="none" stroke="#2b2b2b" stroke-width="2"/>

    <text class="label" x="38" y="280">CALENDAR PREVIEW</text>
    <rect class="soft" x="38" y="292" width="284" height="130" rx="18"/>
    <rect class="card" x="56" y="314" width="58" height="58" rx="12"/>
    <rect class="tint-teal" x="56" y="314" width="58" height="58" rx="12"/>
    <text class="body" x="72" y="336">14</text>
    <rect class="card" x="134" y="314" width="58" height="58" rx="12"/>
    <rect class="tint-red" x="134" y="314" width="29" height="58" rx="0"/>
    <rect class="tint-teal" x="163" y="314" width="29" height="58" rx="0"/>
    <text class="body" x="150" y="336">14</text>
    <rect class="card" x="212" y="314" width="58" height="58" rx="12"/>
    <rect class="tint-red" x="212" y="314" width="9" height="58"/>
    <rect class="tint-orange" x="221" y="314" width="10" height="58"/>
    <rect class="tint-olive" x="231" y="314" width="9" height="58"/>
    <rect class="tint-teal" x="240" y="314" width="10" height="58"/>
    <rect class="tint-blue" x="250" y="314" width="9" height="58"/>
    <rect class="tint-green" x="259" y="314" width="11" height="58"/>
    <text class="body" x="228" y="336">14</text>
    <text class="body-xs" x="180" y="396" text-anchor="middle">This tag fills a whole cell alone and still reads clearly in a 6-slice day.</text>

    <text class="label" x="38" y="468">PERIOD PREDICTION</text>
    <rect class="card" x="38" y="482" width="284" height="64" rx="18"/>
    <text class="body" x="56" y="509">Use this tag to predict next period</text>
    <rect x="268" y="496" width="38" height="22" rx="11" fill="#e0ddd7"/>
    <circle cx="280" cy="507" r="8" fill="#ffffff" stroke="#c6beb4"/>

    <text class="body-xs" x="38" y="584">No icon needed in v1. Label and color are enough if the detail view always names the tags.</text>

    <rect x="92" y="684" width="176" height="46" rx="23" fill="#2d2d2d"/>
    <text class="chip-text-light" x="180" y="713" text-anchor="middle">Save tag</text>

    <text class="body-xs" x="180" y="790" text-anchor="middle">This screen stays simpler once icon selection is removed from the MVP.</text>
  </g>

</svg>
